<svg xmlns="http://www.w3.org/2000/svg" width="520" height="420" viewBox="0 0 520 420" role="img" aria-label="山君">
  <defs>
    <linearGradient id="fur" x1="0" y1="0" x2="0" y2="1">
      <stop offset="0" stop-color="#d9a04b"/>
      <stop offset=".5" stop-color="#8b3e24"/>
      <stop offset="1" stop-color="#211514"/>
    </linearGradient>
    <filter id="shadow"><feDropShadow dx="0" dy="22" stdDeviation="18" flood-color="#000" flood-opacity=".55"/></filter>
  </defs>
  <g filter="url(#shadow)">
    <path d="M260 42 C184 48 119 110 108 197 C64 213 45 263 58 329 C99 306 137 314 174 354 C210 393 310 393 346 354 C383 314 421 306 462 329 C475 263 456 213 412 197 C401 110 336 48 260 42 Z" fill="url(#fur)" stroke="#d6b56e" stroke-opacity=".45" stroke-width="7"/>
    <path d="M151 147 L104 74 L189 104 M369 147 L416 74 L331 104" fill="#2c1816" stroke="#d6b56e" stroke-opacity=".28" stroke-width="6"/>
    <path d="M220 160 C237 149 253 152 260 170 C267 152 283 149 300 160" fill="none" stroke="#0c0807" stroke-width="10" stroke-linecap="round"/>
    <path d="M239 231 L260 250 L281 231" fill="#150c0b"/>
    <path d="M213 274 C236 295 284 295 307 274" fill="none" stroke="#140a09" stroke-width="10" stroke-linecap="round"/>
    <path d="M260 84 V132 M226 91 L241 141 M294 91 L279 141 M177 172 C203 182 229 186 248 190 M343 172 C317 182 291 186 272 190" stroke="#21100d" stroke-width="12" stroke-linecap="round"/>
    <path d="M109 235 C151 246 170 269 180 310 M411 235 C369 246 350 269 340 310" fill="none" stroke="#2b1613" stroke-width="13" stroke-linecap="round"/>
  </g>
</svg>
